<svg width="157" height="149" viewBox="0 0 157 149" fill="none" xmlns="http://www.w3.org/2000/svg">
<path d="M14.5 47.7076V100.808C14.5 110.408 19.8 119.308 28.4 123.608L69.5 142.008C73.4 143.608 76.8 145.108 82.7 145.208C87.1 145.208 90.5 144.508 94 143.008L133.2 124.808C141.7 120.808 147.9 112.608 147.9 101.808V47.7076C147.8 39.0076 142.2 30.7076 134 26.6076L94.1 8.10756C90.6 6.50756 86.9 5.00756 82 5.00756C77.9 4.90756 74.3 5.80756 71 7.20756L29.6 25.7076C21.7 29.1076 14.7 37.3076 14.5 47.7076Z" fill="#FBF3E4" stroke="#6082B6" stroke-width="2.4069" stroke-miterlimit="10"/>
<path d="M65.036 62.4598C56.276 61.1792 46.5485 66.8464 44.8106 76.2273C43.2294 84.7021 48.5569 94.3709 59.0899 96.1912C68.3575 97.9095 77.3467 92.4646 79.2761 82.6502C81.1426 73.8748 75.2684 63.9949 65.036 62.4598ZM60.2405 90.2081C54.1442 89.0379 50.3031 83.5918 50.4302 78.1316C50.9013 72.0311 56.676 66.9637 63.698 68.1773C70.1733 69.1797 74.5024 75.1767 73.465 81.1794C72.4276 87.1821 66.6571 91.5503 60.2405 90.2081Z" fill="#6082B6"/>
<path d="M121.546 76.3084C120.211 84.7091 112.518 91.4278 101.774 90.1542C92.1079 88.717 86.112 80.2158 86.9396 71.3774C88.0721 62.1252 97.0347 54.8095 107.115 56.5515C115.383 57.9803 123.195 66.0956 121.546 76.3084Z" fill="#6082B6"/>
<path d="M103.354 94.5097C104.19 103.169 97.96 114.923 84.5243 115.05C76.6661 114.625 70.5753 109.374 69.2384 102.261L69.3097 99.8237L72.8836 99.3915C74.0988 107.883 83.7356 114.214 92.4355 109.769C97.381 107.474 100.324 101.918 99.8934 94.9614L103.354 94.5097Z" fill="#6082B6"/>
<path d="M97.1214 52.9582L93.7349 53.656C92.226 46.8633 87.2873 41.6941 80.3744 41.1992C72.3834 40.868 65.5965 47.7433 66.3894 57.3282L62.8896 58.0064C61.6828 48.1167 67.8181 39.6124 77.3527 37.761C86.2232 36.378 95.5132 40.6662 97.1214 52.9582Z" fill="#6082B6"/>
<path d="M65.6618 109.458C65.29 111.61 63.2583 113.241 60.4269 112.752C58.2945 112.267 56.6823 110.122 57.0542 107.97C57.4261 105.818 59.5906 104.093 61.969 104.504C64.2342 104.895 65.8464 107.04 65.6618 109.458Z" fill="#6082B6"/>
<path d="M35.2719 78.7779C37.5566 79.0561 39.0751 81.0681 38.6837 83.3333C38.3118 85.4852 36.3738 87.2498 33.9954 86.8388C31.617 86.4277 30.2313 84.322 30.6228 82.0568C30.9946 79.9049 33.12 78.406 35.2719 78.7779Z" fill="#6082B6"/>
<path d="M114.133 96.2559C116.285 96.6278 117.69 98.6203 117.412 100.905C117.001 103.283 114.802 104.536 112.65 104.164C110.498 103.793 109.112 101.687 109.504 99.4216C109.895 97.1565 112.208 95.9232 114.133 96.2559Z" fill="#6082B6"/>
<path d="M108.85 44.4874C108.591 46.6589 106.599 48.0641 104.142 48.1061C101.877 47.7147 100.585 45.7418 101.015 43.2501C101.5 41.1178 103.63 38.9197 106.442 39.5223C108.461 39.9878 109.827 42.2068 108.85 44.4874Z" fill="#6082B6"/>
<path d="M53.6135 48.2385C55.7654 48.6104 57.1707 50.6028 56.7792 52.868C56.3877 55.1332 54.3757 56.6517 52.1105 56.2602C49.8453 55.8688 48.2331 53.7239 48.605 51.572C48.9769 49.4201 51.2351 47.8274 53.6135 48.2385Z" fill="#6082B6"/>
<path d="M80.9129 52.2565C83.0648 52.6284 84.677 54.7733 84.3988 57.058C84.1206 59.3428 81.6751 60.6698 79.5231 60.2979C77.258 59.9064 75.8723 57.8007 76.2442 55.6488C76.6161 53.4968 78.6477 51.8651 80.9129 52.2565Z" fill="#6082B6"/>
<path d="M90.2023 97.7189C89.9632 99.7771 87.6855 101.483 85.3071 101.072C83.1552 100.7 81.6366 98.6881 82.0477 96.3096C82.4937 94.4038 84.6973 92.4518 87.0757 92.8629C89.1143 93.2152 90.7266 95.3601 90.2023 97.7189Z" fill="#6082B6"/>
</svg>
